<?xml version="1.0" encoding="UTF-8"?>
<svg width="200px" height="44px" viewBox="0 0 200 44" version="1.1" xmlns="http://www.w3.org/2000/svg" xmlns:xlink="http://www.w3.org/1999/xlink">
    <!-- Generator: sketchtool 60 (101010) - https://sketch.com -->
    <title>AC00FFFC-BF5A-484E-8530-B8261393D425</title>
    <desc>Created with sketchtool.</desc>
    <g id="Cases" stroke="none" stroke-width="1" fill="none" fill-rule="evenodd">
        <g id="Case" transform="translate(-89.000000, -106.000000)">
            <g id="Genhusning" transform="translate(-2.000000, 0.000000)">
                <g id="Hero" transform="translate(2.000000, 0.000000)">
                    <g id="Navbar">
                        <g id="Logo-/-Positive" transform="translate(89.000000, 106.000000)">
                            <g id="Mobilhouse-logo-positive">
                                <g id="Group">
                                    <g fill="#D54546" id="Rectangle">
                                        <rect x="0.377358481" y="0.0676923062" width="12.9937106" height="13.1111537"></rect>
                                        <rect x="15.467505" y="0.0676923062" width="12.9937106" height="13.1111537"></rect>
                                        <rect x="30.5576508" y="0.0676923062" width="12.9937106" height="13.1111537"></rect>
                                        <rect x="0.377358481" y="15.2899997" width="12.9937106" height="13.1111537"></rect>
                                        <rect x="15.467505" y="15.2899997" width="12.9937106" height="13.1111537"></rect>
                                        <rect x="30.5576508" y="15.2899997" width="12.9937106" height="13.1111537"></rect>
                                        <rect x="0.377358481" y="30.5165373" width="12.9937106" height="13.1111537"></rect>
                                        <rect x="30.5576508" y="30.5165373" width="12.9937106" height="13.1111537"></rect>
                                        <rect x="45.6436061" y="30.5165373" width="12.9937106" height="13.1111537"></rect>
                                        <rect x="45.6436061" y="15.2899997" width="12.9937106" height="13.1111537"></rect>
                                    </g>
                                    <g transform="translate(73.375262, 14.807692)" fill="#252129" fill-rule="nonzero">
                                        <polygon id="Path" points="20.406709 13.8684615 17.0314469 13.8684615 17.0314469 2.88538462 16.8930821 2.88538462 11.8532497 13.8684615 8.61635239 13.8684615 3.6352202 2.88538462 3.49685542 2.88538462 3.49685542 13.8684615 0.121593288 13.8684615 0.121593288 0.0126923074 6.04612172 0.0126923074 10.3438157 9.515 10.4821805 9.515 14.8176104 0.0126923074 20.406709 0.0126923074 20.406709 13.8684615"></polygon>
                                        <path d="M28.4863727,14.0673075 C24.6205448,14.0673075 22.7002094,12.5823075 22.7002094,8.86346148 L22.7002094,8.38961533 C22.7002094,4.66653851 24.6037733,3.18576932 28.5073371,3.18576932 L29.232704,3.18576932 C33.0985319,3.18576932 35.0188673,4.67076928 35.0188673,8.38961533 L35.0188673,8.86346148 C35.0188673,12.5823075 33.0985319,14.0673075 29.232704,14.0673075 L28.4863727,14.0673075 Z M31.9203353,8.77884611 L31.9203353,8.46153842 C31.9203353,6.10499999 30.9182388,5.71153846 28.8805029,5.71153846 C26.8385741,5.71153846 25.7987418,6.10923076 25.7987418,8.46153842 L25.7987418,8.77884611 C25.7987418,11.1353845 26.8385741,11.5288792 28.8805029,11.5288792 C30.9182388,11.5330768 31.9203353,11.1353845 31.9203353,8.77884611 Z" id="Shape"></path>
                                        <path d="M36.9224308,13.8684619 L36.9224308,0.0126923074 L40.0209634,0.0126923074 L40.0209634,4.9796155 L40.1173995,4.9796155 C40.6079655,3.85000009 41.6687622,3.17730776 43.8448629,3.17730776 L44.0796638,3.17730776 C47.1991607,3.17730776 49.2368966,4.36615395 49.2368966,8.32192327 L49.2368966,8.91423097 C49.2368966,12.8742311 47.1949678,14.0588465 44.0796638,14.0588465 L43.8448629,14.0588465 C41.6687622,14.0588465 40.6079655,13.3861542 40.1173995,12.2565387 L40.0209634,12.2565387 L40.0209634,13.8600003 L36.9224308,13.8600003 L36.9224308,13.8684619 Z M46.138364,8.77884617 L46.138364,8.44038463 C46.138364,6.14307694 45.1949677,5.70730771 43.0775672,5.70730771 C40.9601668,5.70730771 40.0167705,6.14307694 40.0167705,8.44038463 L40.0167705,8.77884617 C40.0167705,11.0930769 40.9601668,11.5288765 43.0775672,11.5288765 C45.1991606,11.5330769 46.138364,11.0973077 46.138364,8.77884617 Z" id="Shape"></path>
                                        <path d="M54.2012567,0.0126923074 L54.2012567,2.17038457 L51.1027242,2.17038457 L51.1027242,0.0126923074 L54.2012567,0.0126923074 Z M54.2012567,3.37615377 L54.2012567,13.8684611 L51.1027242,13.8684611 L51.1027242,3.37615377 L54.2012567,3.37615377 Z" id="Shape"></path>
                                        <polygon id="Path" points="59.3794531 13.8684615 56.2809206 13.8684615 56.2809206 0.0126923074 59.3794531 0.0126923074"></polygon>
                                        <path d="M72.6205462,13.8684615 L69.5220136,13.8684615 L69.5220136,7.91153846 C69.5220136,6.05 68.6205461,5.73269231 67.1865838,5.73269231 C65.4800848,5.73269231 64.5576529,6.325 64.5576529,8.32615385 L64.5576529,13.8684615 L61.4591203,13.8684615 L61.4591203,0.0126923074 L64.5576529,0.0126923074 L64.5576529,5.14038462 L64.6750533,5.14038462 C65.1656193,3.89230769 66.2431875,3.18153846 68.2641519,3.18153846 C70.8134183,3.18153846 72.6205462,4.01076923 72.6205462,7.26 L72.6205462,13.8684615 L72.6205462,13.8684615 Z" id="Path"></path>
                                        <path d="M80.1928748,14.0673075 C76.3270468,14.0673075 74.4067114,12.5823075 74.4067114,8.86346148 L74.4067114,8.38961533 C74.4067114,4.66653851 76.3102753,3.18576932 80.2138391,3.18576932 L80.939206,3.18576932 C84.805034,3.18576932 86.7253693,4.67076928 86.7253693,8.38961533 L86.7253693,8.86346148 C86.7253693,12.5823075 84.805034,14.0673075 80.939206,14.0673075 L80.1928748,14.0673075 Z M83.6226445,8.77884611 L83.6226445,8.46153842 C83.6226445,6.10499999 82.6205481,5.71153846 80.5828122,5.71153846 C78.5408834,5.71153846 77.5010511,6.10923076 77.5010511,8.46153842 L77.5010511,8.77884611 C77.5010511,11.1353845 78.5408834,11.5288792 80.5828122,11.5288792 C82.6247409,11.5330768 83.6226445,11.1353845 83.6226445,8.77884611 Z" id="Shape"></path>
                                        <path d="M88.5283016,3.37615385 L91.6268342,3.37615385 L91.6268342,9.33307704 C91.6268342,11.1946155 92.5283016,11.5119232 93.9622641,11.5119232 C95.6687631,11.5119232 96.591195,10.9196155 96.591195,8.91846165 L96.591195,3.37615385 L99.6897276,3.37615385 L99.6897276,13.8684617 L96.591195,13.8684617 L96.591195,12.1084617 L96.4737945,12.1084617 C95.9454926,13.3565387 94.9056603,14.0673079 92.8846959,14.0673079 C90.3354296,14.0673079 88.5283016,13.2380771 88.5283016,9.98884628 L88.5283016,3.37615385 L88.5283016,3.37615385 Z" id="Path"></path>
                                        <path d="M107.278826,14.0673075 C103.748428,14.0673075 102.041929,13.2549998 101.513627,11.0211537 L104.750524,11.0211537 C105.12369,11.7319229 106.083858,11.9307691 107.51782,11.9307691 C109.480084,11.9307691 110.109015,11.6515383 110.109015,10.8011537 L110.109015,10.703846 C110.109015,10.0523076 109.714885,9.79423068 108.226415,9.73499991 L105.538784,9.63769222 C102.595388,9.55730761 101.790357,8.49115379 101.790357,6.6676923 L101.790357,6.49 C101.790357,4.09538468 103.693921,3.18576932 107.283019,3.18576932 L107.480084,3.18576932 C110.775681,3.18576932 112.444445,3.99807699 113.069182,6.23192308 L109.811321,6.23192308 C109.438155,5.52115387 108.712788,5.32230772 107.320755,5.32230772 C105.593292,5.32230772 104.926625,5.61846156 104.926625,6.35038462 L104.926625,6.43076923 C104.926625,7.08230768 105.320755,7.38269228 106.809224,7.39961536 L109.496855,7.49692305 C112.440252,7.61538459 113.245283,8.62653841 113.245283,10.483846 L113.245283,10.6403845 C113.245283,13.1957691 111.324948,14.0630767 107.57652,14.0630767 L107.278826,14.0630767 L107.278826,14.0673075 Z" id="Path"></path>
                                        <path d="M126.540882,10.7207691 C125.991616,12.8784614 124.519918,14.0673075 120.909855,14.0673075 L120.595389,14.0673075 C116.947591,14.0673075 114.846962,12.7811537 114.846962,8.86346148 L114.846962,8.38961533 C114.846962,4.47192313 116.947591,3.18576932 120.595389,3.18576932 L120.88889,3.18576932 C124.515725,3.18576932 126.616354,4.41269236 126.616354,8.33038457 L126.616354,9.26115377 L117.945494,9.26115377 C118.025159,11.3596153 118.947591,11.7149999 120.77149,11.7149999 C122.339624,11.7149999 123.048219,11.4569229 123.421385,10.7249999 L126.540882,10.7249999 L126.540882,10.7207691 Z M117.966459,7.41653855 L123.517821,7.41653855 L123.517821,7.33615393 C123.517821,5.75384623 122.440253,5.318077 120.733754,5.318077 C119.064991,5.318077 118.146752,5.67346161 117.966459,7.41653855 Z" id="Shape"></path>
                                    </g>
                                </g>
                            </g>
                        </g>
                    </g>
                </g>
            </g>
        </g>
    </g>
</svg>